<svg width="512" height="512" viewBox="0 0 512 512" fill="none" xmlns="http://www.w3.org/2000/svg">
<g clip-path="url(#clip0_21_56)">
<path fill-rule="evenodd" clip-rule="evenodd" d="M150.278 101.075C136.009 113.213 127.958 132.66 132.45 154.058L186.683 412.461C195.429 454.058 245.284 471.882 277.117 444.803L373.167 363.099L150.278 101.075Z" fill="#FAB412"/>
<path opacity="0.5" d="M452.217 186.749L204.889 91.715C195.7 88.065 185.684 86.994 175.919 88.617C166.154 90.24 157.012 94.495 149.477 100.924L373.014 363.709L469.593 281.555C501.616 254.315 492.028 202.063 452.217 186.749Z" fill="#F5AF19" fill-opacity="0.24"/>
<path fill-rule="evenodd" clip-rule="evenodd" d="M65.6527 223.24C62.6485 241.731 69.1159 261.761 86.4021 275.15L295.139 436.835C328.753 462.852 378.276 444.126 384.978 402.875L405.2 278.407L65.6527 223.24Z" fill="#FAB412"/>
<path opacity="0.5" d="M351.15 92.862L101.185 180.727C91.8214 183.901 83.4977 189.575 77.1113 197.138C70.7249 204.701 66.5181 213.866 64.9444 223.644L405.479 278.971L425.813 153.817C432.555 112.32 391.397 78.732 351.15 92.862Z" fill="#F5AF19" fill-opacity="0.24"/>
<path fill-rule="evenodd" clip-rule="evenodd" d="M94.4436 373.48C104.136 389.511 122.04 400.577 143.882 399.575L407.638 387.483C450.099 385.521 475.687 339.17 454.064 303.406L388.82 195.496L94.4436 373.48Z" fill="#FAB412"/>
<path opacity="0.5" d="M227.43 89.189L93.9628 318.075C88.8868 326.56 86.2232 336.275 86.259 346.174C86.2947 356.072 89.0287 365.779 94.166 374.247L389.399 195.746L323.795 87.241C302.044 51.2648 248.93 52.3486 227.43 89.189Z" fill="#F5AF19" fill-opacity="0.24"/>
</g>
<defs>
<clipPath id="clip0_21_56">
<rect width="512" height="512" fill="white"/>
</clipPath>
</defs>
</svg>
