<svg width="1627" height="512" viewBox="0 0 1627 512" fill="none" xmlns="http://www.w3.org/2000/svg">
<g clip-path="url(#clip0_22_11)">
<path fill-rule="evenodd" clip-rule="evenodd" d="M150.278 101.075C136.009 113.213 127.958 132.66 132.45 154.058L186.683 412.461C195.429 454.058 245.284 471.882 277.117 444.803L373.167 363.099L150.278 101.075Z" fill="white"/>
<path opacity="0.5" d="M452.217 186.749L204.889 91.7149C195.7 88.0649 185.684 86.9939 175.919 88.6169C166.154 90.2399 157.012 94.4949 149.477 100.924L373.014 363.709L469.593 281.555C501.616 254.315 492.028 202.063 452.217 186.749Z" fill="white" fill-opacity="0.24"/>
<path fill-rule="evenodd" clip-rule="evenodd" d="M65.6527 223.24C62.6485 241.731 69.1159 261.761 86.4021 275.15L295.139 436.835C328.753 462.852 378.276 444.126 384.978 402.875L405.2 278.407L65.6527 223.24Z" fill="white"/>
<path opacity="0.5" d="M351.15 92.862L101.185 180.727C91.8214 183.901 83.4977 189.575 77.1113 197.138C70.7249 204.701 66.5181 213.866 64.9443 223.644L405.479 278.971L425.813 153.817C432.555 112.32 391.397 78.732 351.15 92.862Z" fill="white" fill-opacity="0.24"/>
<path fill-rule="evenodd" clip-rule="evenodd" d="M94.4436 373.48C104.136 389.511 122.04 400.577 143.882 399.575L407.638 387.483C450.099 385.521 475.687 339.17 454.064 303.406L388.82 195.496L94.4436 373.48Z" fill="white"/>
<path opacity="0.5" d="M227.43 89.189L93.9629 318.075C88.8868 326.56 86.2232 336.275 86.259 346.174C86.2948 356.072 89.0287 365.779 94.166 374.247L389.399 195.746L323.795 87.241C302.044 51.2648 248.93 52.3486 227.43 89.189Z" fill="white" fill-opacity="0.24"/>
</g>
<path d="M583.33 346V155.11H629.5L682.42 251.5L734.8 155.11H779.62V346H745.87V197.77L688.9 300.91H674.59L617.08 197.77V346H583.33ZM862.177 347.89C855.517 347.89 849.217 346.99 843.277 345.19C837.337 343.39 832.027 340.78 827.347 337.36C822.667 333.76 818.887 329.35 816.007 324.13C813.307 318.73 811.957 312.43 811.957 305.23C811.957 296.05 813.757 288.58 817.357 282.82C820.957 276.88 825.817 272.38 831.937 269.32C838.237 266.26 845.347 264.19 853.267 263.11C861.187 261.85 869.467 261.22 878.107 261.22H905.917C905.917 254.92 904.927 249.52 902.947 245.02C900.967 240.34 897.817 236.65 893.497 233.95C889.357 231.25 883.957 229.9 877.297 229.9C872.977 229.9 868.927 230.44 865.147 231.52C861.547 232.42 858.397 233.95 855.697 236.11C853.177 238.09 851.377 240.7 850.297 243.94H816.547C817.807 236.56 820.327 230.26 824.107 225.04C828.067 219.64 832.837 215.23 838.417 211.81C844.177 208.39 850.477 205.87 857.317 204.25C864.157 202.45 871.087 201.55 878.107 201.55C898.807 201.55 913.837 207.49 923.197 219.37C932.737 231.25 937.507 247.9 937.507 269.32V346H908.347L907.537 327.64C903.397 333.76 898.447 338.26 892.687 341.14C886.927 344.02 881.347 345.82 875.947 346.54C870.547 347.44 865.957 347.89 862.177 347.89ZM868.657 321.16C875.857 321.16 882.247 319.81 887.827 317.11C893.407 314.41 897.817 310.63 901.057 305.77C904.477 300.91 906.187 295.33 906.187 289.03V284.44H880.267C875.947 284.44 871.627 284.62 867.307 284.98C863.167 285.16 859.387 285.88 855.967 287.14C852.547 288.22 849.757 289.93 847.597 292.27C845.617 294.61 844.627 297.94 844.627 302.26C844.627 306.58 845.707 310.09 847.867 312.79C850.207 315.49 853.177 317.56 856.777 319C860.557 320.44 864.517 321.16 868.657 321.16ZM1023.5 347.89C1016.66 347.89 1009.82 347.17 1002.98 345.73C996.315 344.29 990.015 341.95 984.075 338.71C978.135 335.29 973.185 330.7 969.225 324.94C965.265 319.18 962.655 311.98 961.395 303.34H994.605C996.045 307.3 998.295 310.54 1001.36 313.06C1004.6 315.4 1008.29 317.2 1012.43 318.46C1016.75 319.54 1020.98 320.08 1025.12 320.08C1027.64 320.08 1030.34 319.9 1033.22 319.54C1036.28 319.18 1039.07 318.46 1041.59 317.38C1044.29 316.3 1046.45 314.77 1048.07 312.79C1049.69 310.63 1050.5 307.84 1050.5 304.42C1050.5 301.18 1049.6 298.66 1047.8 296.86C1046 294.88 1043.57 293.35 1040.51 292.27C1037.45 291.01 1033.76 290.02 1029.44 289.3C1021.7 287.68 1013.42 285.97 1004.6 284.17C995.775 282.19 988.125 279.13 981.645 274.99C978.945 273.37 976.605 271.48 974.625 269.32C972.645 267.16 970.935 264.82 969.495 262.3C968.235 259.6 967.245 256.72 966.525 253.66C965.985 250.6 965.715 247.27 965.715 243.67C965.715 236.11 967.245 229.72 970.305 224.5C973.545 219.1 977.775 214.78 982.995 211.54C988.395 208.12 994.515 205.6 1001.36 203.98C1008.2 202.36 1015.22 201.55 1022.42 201.55C1032.14 201.55 1040.96 203.08 1048.88 206.14C1056.8 209.2 1063.37 213.88 1068.59 220.18C1073.99 226.48 1077.23 234.49 1078.31 244.21H1046.99C1046.09 239.71 1043.3 236.11 1038.62 233.41C1034.12 230.71 1028.36 229.36 1021.34 229.36C1018.82 229.36 1016.21 229.63 1013.51 230.17C1010.81 230.53 1008.2 231.25 1005.68 232.33C1003.34 233.23 1001.36 234.67 999.735 236.65C998.295 238.63 997.575 241.06 997.575 243.94C997.575 246.64 998.205 248.98 999.465 250.96C1000.91 252.94 1002.98 254.65 1005.68 256.09C1008.56 257.35 1011.89 258.43 1015.67 259.33C1021.79 260.59 1028.18 261.85 1034.84 263.11C1041.5 264.37 1047.26 265.63 1052.12 266.89C1057.88 268.51 1063.1 270.85 1067.78 273.91C1072.46 276.79 1076.06 280.66 1078.58 285.52C1081.28 290.2 1082.63 296.23 1082.63 303.61C1082.63 312.25 1080.83 319.45 1077.23 325.21C1073.81 330.97 1069.22 335.47 1063.46 338.71C1057.7 341.95 1051.31 344.29 1044.29 345.73C1037.27 347.17 1030.34 347.89 1023.5 347.89ZM1163.56 347.62C1147.9 347.62 1136.47 343.3 1129.27 334.66C1122.07 326.02 1118.47 314.05 1118.47 298.75V232.87H1096.6V203.71H1118.47V163.75H1151.41V203.71H1194.61V232.87H1151.41V292.54C1151.41 297.22 1151.95 301.45 1153.03 305.23C1154.11 309.01 1156.09 311.98 1158.97 314.14C1161.85 316.3 1165.81 317.47 1170.85 317.65C1175.17 317.65 1178.86 316.93 1181.92 315.49C1184.98 314.05 1187.5 312.43 1189.48 310.63L1200.55 335.74C1197.13 338.62 1193.26 340.96 1188.94 342.76C1184.8 344.56 1180.57 345.82 1176.25 346.54C1171.93 347.26 1167.7 347.62 1163.56 347.62ZM1282.11 347.89C1267.35 347.89 1254.75 344.83 1244.31 338.71C1234.05 332.59 1226.22 324.13 1220.82 313.33C1215.6 302.35 1212.99 289.66 1212.99 275.26C1212.99 260.86 1215.69 248.17 1221.09 237.19C1226.67 226.03 1234.59 217.3 1244.85 211C1255.29 204.7 1267.8 201.55 1282.38 201.55C1293.18 201.55 1302.63 203.53 1310.73 207.49C1318.83 211.27 1325.58 216.49 1330.98 223.15C1336.56 229.81 1340.7 237.37 1343.4 245.83C1346.1 254.29 1347.36 263.2 1347.18 272.56C1347 274.72 1346.82 276.88 1346.64 279.04C1346.46 281.02 1346.19 283.18 1345.83 285.52H1245.93C1246.47 291.82 1248.09 297.58 1250.79 302.8C1253.67 308.02 1257.63 312.16 1262.67 315.22C1267.89 318.28 1274.37 319.81 1282.11 319.81C1286.61 319.81 1290.93 319.27 1295.07 318.19C1299.21 316.93 1302.81 315.13 1305.87 312.79C1309.11 310.45 1311.27 307.48 1312.35 303.88H1345.29C1342.95 314.14 1338.63 322.51 1332.33 328.99C1326.03 335.47 1318.47 340.24 1309.65 343.3C1301.01 346.36 1291.83 347.89 1282.11 347.89ZM1246.47 260.95H1315.05C1315.05 255.01 1313.7 249.61 1311 244.75C1308.3 239.89 1304.43 236.11 1299.39 233.41C1294.53 230.53 1288.59 229.09 1281.57 229.09C1274.01 229.09 1267.71 230.62 1262.67 233.68C1257.63 236.74 1253.76 240.7 1251.06 245.56C1248.36 250.42 1246.83 255.55 1246.47 260.95ZM1373.43 346V203.71H1403.4L1405.29 222.34C1408.89 216.94 1412.94 212.8 1417.44 209.92C1422.12 206.86 1427.07 204.7 1432.29 203.44C1437.69 202.18 1443.09 201.55 1448.49 201.55C1450.47 201.55 1452.27 201.55 1453.89 201.55C1455.69 201.55 1457.13 201.64 1458.21 201.82V233.14H1449.57C1440.21 233.14 1432.29 234.94 1425.81 238.54C1419.33 242.14 1414.47 247.27 1411.23 253.93C1407.99 260.59 1406.37 268.78 1406.37 278.5V346H1373.43ZM1540.49 411.07C1529.51 411.07 1518.8 409.54 1508.36 406.48C1498.1 403.6 1488.56 398.65 1479.74 391.63L1491.62 365.17C1497.74 370.03 1504.58 373.81 1512.14 376.51C1519.7 379.39 1527.98 380.83 1536.98 380.83C1551.2 380.83 1561.55 377.23 1568.03 370.03C1574.69 362.83 1578.02 353.02 1578.02 340.6V330.07C1574.78 334.21 1570.82 337.63 1566.14 340.33C1561.46 343.03 1556.42 345.01 1551.02 346.27C1545.62 347.53 1540.13 348.16 1534.55 348.16C1520.69 348.16 1509.62 345.37 1501.34 339.79C1493.24 334.03 1487.39 326.2 1483.79 316.3C1480.19 306.22 1478.39 294.79 1478.39 282.01V203.71H1511.06V274.72C1511.06 279.76 1511.42 284.89 1512.14 290.11C1512.86 295.33 1514.3 300.1 1516.46 304.42C1518.62 308.74 1521.77 312.25 1525.91 314.95C1530.23 317.47 1535.9 318.73 1542.92 318.73C1552.1 318.73 1559.21 316.48 1564.25 311.98C1569.29 307.48 1572.71 301.63 1574.51 294.43C1576.49 287.23 1577.48 279.58 1577.48 271.48V203.71H1610.42V332.5C1610.42 344.56 1609.16 355.36 1606.64 364.9C1604.12 374.62 1600.07 382.9 1594.49 389.74C1588.91 396.58 1581.71 401.8 1572.89 405.4C1564.07 409.18 1553.27 411.07 1540.49 411.07Z" fill="white"/>
<defs>
<clipPath id="clip0_22_11">
<rect width="512" height="512" fill="white"/>
</clipPath>
</defs>
</svg>
